<?xml version="1.0" encoding="UTF-8"?>
<svg xmlns="http://www.w3.org/2000/svg" viewBox="0 0 2891.34 1247.24" height="1247.24" width="2891.34" >
  <defs>
    <style>
      .cls-1, .cls-2, .cls-3, .cls-4, .cls-5, .cls-6, .cls-7, .cls-8, .cls-9, .cls-10, .cls-11, .cls-12, .cls-13, .cls-14, .cls-15, .cls-16, .cls-17 {
        stroke-width: 0px;
      }

      .cls-1, .cls-18 {
        opacity: .2;
      }

      .cls-1, .cls-6, .cls-17 {
        fill: #006bb7;
      }

      .cls-19 {
        stroke: #e3000f;
      }

      .cls-19, .cls-20, .cls-21, .cls-22, .cls-23, .cls-24, .cls-25, .cls-26, .cls-27, .cls-28 {
        stroke-width: 4px;
      }

      .cls-19, .cls-29 {
        stroke-miterlimit: 10;
      }

      .cls-19, .cls-15 {
        fill: #fff;
      }

      .cls-2, .cls-3 {
        isolation: isolate;
        opacity: .2;
      }

      .cls-2, .cls-12 {
        fill: #c9c4c2;
      }

      .cls-30, .cls-31 {
        stroke-width: 2px;
      }

      .cls-30, .cls-31, .cls-20, .cls-21, .cls-22, .cls-23, .cls-24, .cls-25, .cls-26, .cls-29, .cls-27, .cls-28, .cls-32 {
        fill: none;
      }

      .cls-30, .cls-31, .cls-20, .cls-21, .cls-22, .cls-23, .cls-24, .cls-25, .cls-26, .cls-27, .cls-28, .cls-32 {
        stroke-linejoin: round;
      }

      .cls-30, .cls-31, .cls-20, .cls-21, .cls-22, .cls-23, .cls-24, .cls-25, .cls-26, .cls-32 {
        stroke-linecap: round;
      }

      .cls-30, .cls-24 {
        stroke: #000;
      }

      .cls-31, .cls-25, .cls-32 {
        stroke: #23211f;
      }

      .cls-20, .cls-29 {
        stroke: #fff;
      }

      .cls-21, .cls-27 {
        stroke: #202020;
      }

      .cls-22 {
        stroke: #19285f;
      }

      .cls-23 {
        stroke: #006bb7;
      }

      .cls-26 {
        stroke: #1a1a1a;
      }

      .cls-33 {
        opacity: .5;
      }

      .cls-28 {
        stroke: #ededed;
      }

      .cls-5 {
        fill: #8c4fc2;
      }

      .cls-5, .cls-6 {
        opacity: .3;
      }

      .cls-7 {
        fill: #4f051f;
      }

      .cls-8 {
        fill: #9c2b42;
      }

      .cls-9 {
        fill: #58595b;
      }

      .cls-10 {
        fill: #19285f;
      }

      .cls-11 {
        fill: #221f1f;
      }

      .cls-13 {
        fill: #e3000f;
      }

      .cls-14 {
        fill: #ff8c9e;
      }

      .cls-16 {
        fill: #e9a48a;
      }

      .cls-32 {
        stroke-width: 3px;
      }
    </style>
  </defs>
  <g id="background">
    <rect class="cls-6" width="2892" height="1248"/>
    <path class="cls-15" d="M2084.54,399.97h345.06c24.75,0,44.99,20.09,44.99,44.99v345.06c0,24.75-20.09,44.99-44.99,44.99h-345.06c-24.75,0-44.99-20.09-44.99-44.99v-345.06c0-24.9,20.09-44.99,44.99-44.99Z"/>
    <g class="cls-18">
      <path class="cls-17" d="M1637.49,452.1c24.24,117.64,26.6,242.95-42.57,305.03-68.56,61.47-209.26,59.11-320.4,118.22-109.94,59.11-192.12,179.11-304.44,220.5-111.73,41.98-254.78,4.15-360-83.35-104.64-88.09-172.03-225.22-201.58-374.2-30.15-148.37-22.47-307.39,70.94-383.06,92.81-76.26,271.33-70.34,401.97-91.03,130.64-20.7,213.99-68.58,313.31-81.58,99.3-13.02,213.99,8.28,293.2,74.47,80.39,66.21,125.92,176.75,149.56,294.99Z"/>
    </g>
  </g>
  <g id="commun_illustration_for_session" data-name="commun illustration for session">
    <g>
      <path class="cls-24" d="M2511.38,922.56c-15.7,0-26.19,12.12-23.5,26.98l.8,4.27c.21,1.03,1.2,1.89,2.4,1.89h52.96c.9,0,1.7-.65,1.7-1.51v-.38l-.8-4.27c-2.79-14.96-17.79-26.98-33.57-26.98Z"/>
      <path class="cls-10" d="M2380.86,1109.12h181.98c3.9,0,7.2-2.65,7.79-6.25l25.79-138.46c1.4-7.68-4.8-14.77-13.09-14.77h-154.1c-10.89,0-20.19,7.39-22.09,17.51l-26.29,141.97Z"/>
      <path class="cls-17" d="M2644.89,1109.12h-188.68l-7.79-42.14-21.57-115.84c-.21-.85.5-1.51,1.4-1.51h168.19c10.89,0,20.19,7.39,22.09,17.51l26.38,141.97Z"/>
      <path class="cls-3" d="M2640.6,1086.02l-4.7-25.29h-188.67l1.19,6.26,192.18,19.03Z"/>
      <path class="cls-24" d="M2420.04,1008.74v98.49"/>
      <path class="cls-24" d="M2633.89,1060.83h-184.87"/>
      <path class="cls-22" d="M2530.26,989.32l6.5,35.05"/>
      <path class="cls-22" d="M2551.95,1006.85h-36.97"/>
    </g>
    <g>
      <path class="cls-17" d="M372.36,416.6h61.79c7.97,0,14.47,6.16,14.47,13.71v147.35c0,7.56-6.5,13.71-14.47,13.71h-61.79c-7.97,0-14.47-6.16-14.47-13.71v-147.35c0-7.56,6.5-13.71,14.47-13.71Z"/>
      <path class="cls-15" d="M421.1,450.92h-35.45c-4.55,0-8.26-3.52-8.26-7.83s3.72-7.85,8.26-7.85h35.45c4.55,0,8.26,3.54,8.26,7.85s-3.72,7.83-8.26,7.83Z"/>
      <path class="cls-8" d="M387.49,452.71c-5.61,0-10.1-4.31-10.1-9.57s4.55-9.57,10.1-9.57,10.1,4.31,10.1,9.57c.06,5.27-4.49,9.57-10.1,9.57Z"/>
      <path class="cls-15" d="M385.65,495.98h35.45c4.55,0,8.26,3.52,8.26,7.83s-3.72,7.85-8.26,7.85h-35.45c-4.55,0-8.26-3.54-8.26-7.85s3.72-7.83,8.26-7.83Z"/>
      <path class="cls-14" d="M419.27,494.24c5.61,0,10.1,4.32,10.1,9.57s-4.55,9.57-10.1,9.57-10.1-4.31-10.1-9.57c-.06-5.25,4.49-9.57,10.1-9.57Z"/>
      <path class="cls-15" d="M385.65,556.72h35.45c4.55,0,8.26,3.54,8.26,7.85s-3.72,7.83-8.26,7.83h-35.45c-4.55,0-8.26-3.52-8.26-7.83s3.72-7.85,8.26-7.85Z"/>
      <path class="cls-14" d="M419.27,554.99c5.61,0,10.1,4.31,10.1,9.57s-4.55,9.57-10.1,9.57-10.1-4.31-10.1-9.57c-.06-5.27,4.49-9.57,10.1-9.57Z"/>
      <path class="cls-15" d="M385.65,465.64h35.45c4.55,0,8.26,3.54,8.26,7.85s-3.72,7.83-8.26,7.83h-35.45c-4.55,0-8.26-3.52-8.26-7.83s3.72-7.85,8.26-7.85Z"/>
      <path class="cls-8" d="M387.49,463.86c5.61,0,10.1,4.31,10.1,9.56s-4.56,9.57-10.1,9.57-10.1-4.31-10.1-9.57,4.55-9.56,10.1-9.56Z"/>
      <path class="cls-15" d="M385.65,526.38h35.45c4.55,0,8.26,3.52,8.26,7.83s-3.72,7.85-8.26,7.85h-35.45c-4.55,0-8.26-3.54-8.26-7.85s3.72-7.83,8.26-7.83Z"/>
      <path class="cls-8" d="M387.49,524.64c5.61,0,10.1,4.31,10.1,9.57s-4.56,9.57-10.1,9.57-10.1-4.31-10.1-9.57,4.55-9.57,10.1-9.57Z"/>
    </g>
    <g>
      <path class="cls-26" d="M179.71,137.21l69.13-65.53c2.18-2.07,5.71-2.07,7.89,0l69.13,65.53"/>
      <path class="cls-15" d="M149.49,128.86h206.62c4.64,0,8.46,3.6,8.46,8.02v98.83c0,4.41-3.81,8.02-8.46,8.02h-206.62c-4.66,0-8.46-3.6-8.46-8.02v-98.83c0-4.41,3.8-8.02,8.46-8.02Z"/>
    </g>
    <g>
      <path class="cls-13" d="M833.95,1093.47l-45.28-72.34v-43.38h4.62c4.24-.47,7.6-3.67,7.6-7.57v-.47c0-3.9-3.36-7.09-7.48-7.09h-37.8c-4.12,0-7.48,3.18-7.48,7.09v.47c0,3.9,3.36,7.1,7.35,7.57h4.74v43.38l-45.15,72.34c-2.38,3.9-1,8.63,2.87,11,1.24.71,2.74,1.06,4.23,1.06h104.28c4.74,0,8.49-3.67,8.49-8.04.12-1.41-.25-2.83-1-4.02Z"/>
      <path class="cls-7" d="M833.7,1093.47l-20.7-33.33c-52.39,41.61-35.55-19.38-72.97-6.61l-24.95,39.95c-2.38,3.9-1,8.63,2.87,11,1.24.71,2.74,1.06,4.23,1.06h104.28c4.74,0,8.49-3.67,8.49-8.04,0-1.41-.37-2.83-1.24-4.02Z"/>
    </g>
    <g>
      <path class="cls-20" d="M363.46,793.17v28.25"/>
      <path class="cls-20" d="M363.46,901.58v28.25"/>
      <path class="cls-20" d="M431.79,861.5h-28.25"/>
      <path class="cls-20" d="M323.38,861.5h-28.25"/>
      <path class="cls-20" d="M315.2,813.24l19.89,19.89"/>
      <path class="cls-20" d="M391.88,889.92l19.89,19.89"/>
      <path class="cls-20" d="M411.77,813.24l-19.89,19.89"/>
      <path class="cls-20" d="M335.08,889.92l-19.89,19.89"/>
    </g>
    <g>
      <path class="cls-20" d="M800.46,131.17v28.25"/>
      <path class="cls-20" d="M800.46,239.58v28.25"/>
      <path class="cls-20" d="M868.79,199.5h-28.25"/>
      <path class="cls-20" d="M760.38,199.5h-28.25"/>
      <path class="cls-20" d="M752.2,151.24l19.89,19.89"/>
      <path class="cls-20" d="M828.88,227.92l19.89,19.89"/>
      <path class="cls-20" d="M848.77,151.24l-19.89,19.89"/>
      <path class="cls-20" d="M772.08,227.92l-19.89,19.89"/>
    </g>
    <g>
      <path class="cls-20" d="M2043.46,131.17v28.25"/>
      <path class="cls-20" d="M2043.46,239.58v28.25"/>
      <path class="cls-20" d="M2111.79,199.5h-28.25"/>
      <path class="cls-20" d="M2003.38,199.5h-28.25"/>
      <path class="cls-20" d="M1995.2,151.24l19.89,19.89"/>
      <path class="cls-20" d="M2071.88,227.92l19.89,19.89"/>
      <path class="cls-20" d="M2091.77,151.24l-19.89,19.89"/>
      <path class="cls-20" d="M2015.08,227.92l-19.89,19.89"/>
    </g>
    <path class="cls-19" d="M2358.08,635.52c3.35-3.36,6.72-6.7,10.07-10.07,15.23-15.29,23.92-33.59,23.75-55.48-.05-32.4-21.96-60.71-53.37-68.99-26.82-6.98-50.71-.81-70.88,18.4-3.69,3.52-6.98,7.47-11.05,11.85-4.07-4.38-7.36-8.33-11.05-11.85-20.17-19.22-44.06-25.39-70.88-18.4-31.42,8.28-53.32,36.59-53.37,68.99-.16,21.89,8.52,40.19,23.75,55.48,26.69,26.82,53.56,53.45,80.33,80.19l31.27,31.29c9.17-9.21,18.08-18.19,27.01-27.12M2249.83,671.59h142.07M2320.87,742v-140.81"/>
    <g>
      <path class="cls-15" d="M141.99,122.29h213.06c8.67,0,15.64,7.01,15.64,15.68v162.39c0,8.67-7.02,15.63-15.64,15.63h-213.06c-8.67,0-15.69-7.01-15.69-15.63v-162.39c.05-8.67,7.02-15.68,15.69-15.68Z"/>
      <path class="cls-8" d="M160.98,142.36h67.34c3.97,0,7.23,3.25,7.23,7.23v.31c0,3.97-3.25,7.23-7.23,7.23h-67.34c-3.97,0-7.23-3.25-7.23-7.23v-.31c0-3.97,3.25-7.23,7.23-7.23Z"/>
      <path class="cls-8" d="M327.24,142.36h43.45v14.76h-43.45c-3.97,0-7.23-3.25-7.23-7.23v-.31c0-3.97,3.25-7.23,7.23-7.23Z"/>
      <path class="cls-7" d="M217.48,211.25h22.5c3.97,0,7.23,3.25,7.23,7.22v.31c0,3.97-3.25,7.23-7.23,7.23h-22.5c-3.97,0-7.22-3.25-7.22-7.23v-.31c0-4.02,3.25-7.22,7.22-7.22Z"/>
      <path class="cls-17" d="M195.3,280.14h22.5c3.97,0,7.22,3.25,7.22,7.23v.31c0,3.97-3.25,7.23-7.22,7.23h-22.5c-3.97,0-7.23-3.25-7.23-7.23v-.31c0-4.02,3.25-7.23,7.23-7.23Z"/>
      <path class="cls-17" d="M244.42,280.14h43.6c3.97,0,7.23,3.25,7.23,7.23v.31c0,3.97-3.25,7.23-7.23,7.23h-43.6c-3.97,0-7.23-3.25-7.23-7.23v-.31c0-4.02,3.2-7.23,7.23-7.23Z"/>
      <path class="cls-10" d="M217.48,245.67h76.84c3.97,0,7.22,3.25,7.22,7.23v.31c0,3.97-3.25,7.23-7.22,7.23h-76.84c-3.97,0-7.22-3.25-7.22-7.23v-.31c0-3.97,3.25-7.23,7.22-7.23Z"/>
      <path class="cls-13" d="M160.98,176.78h67.34c3.97,0,7.23,3.25,7.23,7.23v.31c0,3.97-3.25,7.23-7.23,7.23h-67.34c-3.97,0-7.23-3.25-7.23-7.23v-.31c0-3.97,3.25-7.23,7.23-7.23Z"/>
      <path class="cls-13" d="M263.92,176.68h34.11c3.97,0,7.23,3.25,7.23,7.23v.31c0,3.97-3.25,7.22-7.23,7.22h-34.11c-3.97,0-7.22-3.25-7.22-7.22v-.31c0-4.02,3.25-7.23,7.22-7.23Z"/>
      <path class="cls-15" d="M141.99,122.29h29.21v193.71h-29.21c-8.67,0-15.69-7.01-15.69-15.63v-162.39c0-8.67,7.02-15.68,15.69-15.68Z"/>
      <path class="cls-2" d="M141.99,122.29h29.21v193.71h-29.21c-8.67,0-15.69-7.01-15.69-15.63v-162.39c0-8.67,7.02-15.68,15.69-15.68Z"/>
      <path class="cls-28" d="M370.69,166.67h-198.97"/>
      <path class="cls-28" d="M370.69,201.5h-198.97"/>
      <path class="cls-28" d="M370.69,236.85h-198.97"/>
      <path class="cls-28" d="M370.69,270.08h-198.97"/>
      <path class="cls-27" d="M171.2,122.29v193.71"/>
      <path class="cls-21" d="M143.75,149.75h10.01"/>
      <path class="cls-21" d="M143.75,184.06h10.01"/>
      <path class="cls-21" d="M143.75,218.37h10.01"/>
      <path class="cls-21" d="M143.75,253.2h10.01"/>
      <path class="cls-21" d="M143.75,287.52h10.01"/>
    </g>
    <g>
      <path class="cls-15" d="M1121.47,912.17h-230.79c-12.36,0-22.42,10-22.42,22.42v148.22c0,12.37,10.01,22.42,22.42,22.42h230.83c12.37,0,22.42-10.01,22.42-22.42v-148.22c-.05-12.41-10.1-22.42-22.47-22.42Z"/>
      <path class="cls-5" d="M895.4,947.39c4.47,0,8.09-3.63,8.09-8.09s-3.63-8.09-8.09-8.09-8.09,3.63-8.09,8.09,3.62,8.09,8.09,8.09Z"/>
      <path class="cls-5" d="M919.59,947.39c4.47,0,8.09-3.63,8.09-8.09s-3.63-8.09-8.09-8.09-8.09,3.63-8.09,8.09,3.62,8.09,8.09,8.09Z"/>
      <path class="cls-5" d="M943.77,947.39c4.47,0,8.1-3.63,8.1-8.09s-3.63-8.09-8.1-8.09-8.09,3.63-8.09,8.09,3.63,8.09,8.09,8.09Z"/>
    </g>
    <g>
      <path class="cls-15" d="M1742.47,196.17h-230.79c-12.36,0-22.42,10-22.42,22.42v148.22c0,12.37,10.01,22.42,22.42,22.42h230.83c12.37,0,22.42-10.01,22.42-22.42v-148.22c-.05-12.41-10.1-22.42-22.47-22.42Z"/>
      <path class="cls-5" d="M1516.4,231.39c4.47,0,8.09-3.63,8.09-8.09s-3.63-8.09-8.09-8.09-8.09,3.63-8.09,8.09,3.62,8.09,8.09,8.09Z"/>
      <path class="cls-5" d="M1540.59,231.39c4.47,0,8.09-3.63,8.09-8.09s-3.63-8.09-8.09-8.09-8.09,3.63-8.09,8.09,3.62,8.09,8.09,8.09Z"/>
      <path class="cls-5" d="M1564.77,231.39c4.47,0,8.1-3.63,8.1-8.09s-3.63-8.09-8.1-8.09-8.09,3.63-8.09,8.09,3.63,8.09,8.09,8.09Z"/>
    </g>
    <g>
      <path class="cls-17" d="M1725.32,256.87h-50.27s-5.81,29.72,11.68,45.48h50.27c-17.5-15.76-11.68-45.48-11.68-45.48Z"/>
      <path class="cls-13" d="M1654.86,231.17h-50.27s-5.81,29.72,11.68,45.48h50.27c-17.55-15.76-11.68-45.48-11.68-45.48Z"/>
    </g>
    <path class="cls-8" d="M1652.83,355.85h-82.68c-4.55,0-8.27-3.71-8.27-8.27v-58.18c0-4.55,3.71-8.27,8.27-8.27h22.35c2.94,0,5.63,1.56,7.13,4.07l2.58,4.37c1.5,2.52,4.19,4.07,7.13,4.07h43.56c4.55,0,8.27,3.71,8.27,8.27v45.65c0,4.55-3.71,8.27-8.33,8.27q.06,0,0,0Z"/>
    <g>
      <path class="cls-13" d="M1021.97,993.55v21.17c.01.14-.13.21-.27.14l-48.54-39.43c-6.06,7.47-10.32,16.23-12.48,25.61-2.15,9.38-2.12,19.12.09,28.48,2.2,9.36,6.53,18.1,12.63,25.54,6.1,7.43,13.83,13.37,22.59,17.35l66.16-63.94-40.18-14.91Z"/>
      <path class="cls-8" d="M1066.43,970.61c-11.8-11.79-27.8-18.42-44.48-18.42l.04,62.54c0,.06-.03.11-.08.14,0,.09-.01.24-.03.48l-25.89,57.06c9.59,4.32,20.1,6.17,30.58,5.38,10.48-.79,20.61-4.19,29.44-9.88,8.84-5.7,16.11-13.52,21.15-22.74,5.04-9.23,7.69-19.57,7.71-30.09-.02-16.68-6.65-32.68-18.45-44.46Z"/>
      <path class="cls-12" d="M1016.33,940l.04,62.54c0,.14-.14.21-.28.14l-48.54-39.43c5.87-7.28,13.3-13.15,21.75-17.18,8.45-4.02,17.68-6.1,27.04-6.07h0Z"/>
    </g>
  </g>
  <g id="Layer_6" data-name="Layer 6">
    <path class="cls-12" d="M1619.73,1029.05v-357.9c0-22.3,18.1-40.5,40.5-40.5h269.5c22.3,0,40.5,18.1,40.5,40.5v357.9c0,22.3-18.1,40.5-40.5,40.5h-269.5c-22.4-.1-40.5-18.2-40.5-40.5Z"/>
    <g>
      <path class="cls-22" d="M1331.83,890.65h293.1"/>
      <path class="cls-10" d="M1600.23,927.55c20.66,0,37.4-16.75,37.4-37.4s-16.74-37.4-37.4-37.4-37.4,16.75-37.4,37.4,16.75,37.4,37.4,37.4Z"/>
    </g>
    <g>
      <path class="cls-22" d="M1416.35,891.89v85.91c0,17.25,14.14,31.2,31.62,31.2h172.03"/>
      <path class="cls-17" d="M1416.91,904.63c7.44,0,13.47-5.95,13.47-13.29s-6.03-13.29-13.47-13.29-13.47,5.95-13.47,13.29,6.03,13.29,13.47,13.29Z"/>
    </g>
    <path class="cls-17" d="M1075.33,649.95h213.7c22.3,0,40.5,18.1,40.5,40.5v213.7c0,22.3-18.1,40.5-40.5,40.5h-213.7c-22.3,0-40.5-18.1-40.5-40.5v-213.8c0-22.3,18.1-40.4,40.5-40.4Z"/>
    <g>
      <path class="cls-22" d="M1329.61,244.23h58.3c6.1,0,11.01,4.91,11.01,11.01v172.84c0,6.1-4.91,11.01-11.01,11.01h-91.75"/>
      <path class="cls-10" d="M1321.46,244.01c0,9.06,7.34,16.4,16.39,16.4s16.4-7.34,16.4-16.4-7.34-16.39-16.4-16.39-16.39,7.34-16.39,16.39Z"/>
    </g>
    <g>
      <path class="cls-10" d="M1329.93,442.15h298.6c22.3,0,10.5,19.3,10.5,41.7l30,273.1v24.3c0,22.3-18.1,40.5-40.5,40.5h-298.6c-22.3,0-40.5-18.1-40.5-40.5v-20.4l17.3-277.7c0-22.4.8-41,23.2-41Z"/>
      <path class="cls-15" d="M1329.93,417.85h298.6c22.3,0,40.5,18.1,40.5,40.5v298.6c0,22.3-18.1,40.5-40.5,40.5h-298.6c-22.3,0-40.5-18.1-40.5-40.5v-298.7c0-22.3,18.1-40.4,40.5-40.4Z"/>
    </g>
    <g>
      <path class="cls-10" d="M694.97,310.13h390.51c15.72,0,7.4,13.61,7.4,29.4l21.15,192.54v17.13c0,15.72-12.76,28.55-28.55,34.55h-390.51c-15.72-6-28.55-18.76-28.55-34.55v-14.38l12.2-195.78c0-15.79.56-28.9,16.36-28.9Z"/>
      <path class="cls-15" d="M694.97,293h390.51c15.72,0,28.55,12.76,28.55,28.55v210.51c0,15.72-12.76,28.55-28.55,28.55h-390.51c-15.72,0-28.55-12.76-28.55-28.55v-210.58c0-15.72,12.76-28.48,28.55-28.48Z"/>
    </g>
    <path class="cls-23" d="M727.9,866.88c-16.83-75.48-2.14-166.3,28.58-169.95,29.15-3.51,38.82,69.62,30.01,88.67-6.66,14.39-19.41-.29-6.59-30.8,11.75-27.86,46.12-84.94,78.35-83.51,32.23,1.43,4.37,59.37,4.37,59.37l126.77-46.91"/>
    <path class="cls-17" d="M1813.04,525.18c21.73,0,39.36-17.63,39.36-39.35s-17.63-39.36-39.36-39.36-39.35,17.63-39.35,39.36,17.63,39.35,39.35,39.35Z"/>
    <g>
      <path class="cls-22" d="M938.18,313.07v-101.24c0-10.58,8.53-19.1,19.11-19.1h300.14c10.58,0,19.1,8.52,19.1,19.1v159.32"/>
      <path class="cls-10" d="M937.8,327.23c15.73,0,28.47-12.74,28.47-28.47s-12.74-28.47-28.47-28.47-28.47,12.75-28.47,28.47,12.75,28.47,28.47,28.47Z"/>
      <path class="cls-9" d="M1192.73,202.32c5.08,0,9.21-4.13,9.21-9.21s-4.13-9.21-9.21-9.21-9.21,4.12-9.21,9.21,4.12,9.21,9.21,9.21Z"/>
    </g>
    <path class="cls-12" d="M1076.23,131.35h172.5c22.3,0,40.5,18.1,40.5,40.5v172.5c0,22.3-18.1,40.5-40.5,40.5h-172.5c-22.3,0-40.5-18.1-40.5-40.5v-172.5c0-22.4,18.1-40.5,40.5-40.5Z"/>
    <g>
      <path class="cls-13" d="M801.97,396.17h-40.6v126.36h40.6v-126.36Z"/>
      <path class="cls-17" d="M948.84,377.69h-40.6v144.83h40.6v-144.83Z"/>
      <path class="cls-8" d="M875.35,351h-40.6v171.52h40.6v-171.52Z"/>
      <path class="cls-12" d="M1022.21,449.55h-40.6v72.98h40.6v-72.98Z"/>
      <path class="cls-30" d="M741.07,522.52h301.44"/>
    </g>
    <g>
      <path class="cls-25" d="M1185.26,311.24h11"/>
      <path class="cls-15" d="M1162.71,347.83c49.38,0,89.42-40.03,89.42-89.42s-40.03-89.42-89.42-89.42-89.42,40.03-89.42,89.42,40.03,89.42,89.42,89.42Z"/>
      <path class="cls-13" d="M1197.12,312.1v-8.5l-50.33-.08v9.36h-16.78c-12.72,0-22.94,7.49-27.54,11.55,36.44,33.32,92.93,30.74,126.24-5.7.47-.55,1.01-1.09,1.48-1.64-4.84-3.2-10.53-4.92-16.38-5.07l-16.7.08Z"/>
      <path class="cls-16" d="M1120.89,262.86c1.79-9.05,1.72-20.21,3.28-30.27,1.09-6.87,2.89-13.19,6.63-17.87,9.21-11.47,33.94-15.92,53.76-1.4,19.82,14.51,18.8,34.95,18.02,44.16l-5.54,30.98.08,15.37h-50.33l-.08-8.35s-11,2.34-17.48-2.11c-8.74-6.01-11.39-15.29-8.35-30.51Z"/>
      <path class="cls-11" d="M1130.8,214.72c9.21-11.47,35.42-18.65,55.24-4.14,19.82,14.51,17.32,37.69,16.54,46.89l-5.54,30.98s-14.9-4.68-21.22-16.54c0,0,21.61-9.67,11.78-23.56-9.44-13.34-25.9,3.12-25.9,3.12-9.44-3.12-18.88-16.54-18.88-16.54-14.12.78-18.65-2.42-18.65-2.42,1.09-6.79,2.89-13.11,6.63-17.79Z"/>
      <path class="cls-4" d="M1145.16,258.1c1.33,0,2.42-1.08,2.42-2.42s-1.08-2.42-2.42-2.42-2.42,1.08-2.42,2.42,1.08,2.42,2.42,2.42Z"/>
      <path class="cls-4" d="M1127.92,256.46c1.33,0,2.42-1.08,2.42-2.42s-1.08-2.42-2.42-2.42-2.42,1.08-2.42,2.42,1.08,2.42,2.42,2.42Z"/>
      <path class="cls-31" d="M1133.14,262.08c-.39,1.33-.62,2.5-.39,2.96.39.7,1.01,1.33,1.72,1.72"/>
      <path class="cls-32" d="M1141.18,273.55c-1.48,1.4-3.59,2.03-5.62,1.56"/>
      <path class="cls-31" d="M1156.32,293.53c-2.81,1.25-6.63,1.01-9.6,1.95"/>
      <path class="cls-31" d="M1175.82,257.01l-5.46,3.9"/>
    </g>
    <g>
      <path class="cls-1" d="M1364.2,500.87l181.24-36.03c9.3-1.85,18.41,4.24,20.26,13.54l41.3,207.77c1.85,9.3-4.24,18.41-13.54,20.26l-181.24,36.03c-9.3,1.85-18.41-4.24-20.26-13.54l-41.3-207.77c-1.86-9.38,4.24-18.41,13.54-20.26Z"/>
      <path class="cls-20" d="M1396.48,549.94l8.92,5.96,9.67-14.36"/>
      <path class="cls-20" d="M1425.4,619.62c3.23-3.34,3.14-8.66-.19-11.89-3.34-3.24-8.66-3.15-11.89.19-3.24,3.33-3.15,8.66.19,11.89,3.34,3.23,8.67,3.14,11.9-.2Z"/>
      <path class="cls-20" d="M1438.15,683.84c3.23-3.34,3.15-8.66-.19-11.89-3.33-3.23-8.66-3.15-11.89.19-3.23,3.33-3.15,8.66.19,11.89,3.34,3.23,8.66,3.15,11.89-.19Z"/>
      <path class="cls-20" d="M1439.94,544.41l75.21-14.95"/>
      <path class="cls-20" d="M1452.43,607.26l75.21-14.95"/>
      <path class="cls-20" d="M1465.08,670.9l75.21-14.95"/>
    </g>
    <line class="cls-29" x1="1927" y1="968.63" x2="1693" y2="968.63"/>
    <line class="cls-29" x1="1715.12" y1="1000.5" x2="1715.12" y2="666.75"/>
    <line class="cls-29" x1="1927" y1="711" x2="1693" y2="711"/>
    <line class="cls-29" x1="1927" y1="796.88" x2="1693" y2="796.88"/>
    <line class="cls-29" x1="1927" y1="882.75" x2="1693" y2="882.75"/>
    <g>
      <path class="cls-7" d="M1746.36,1022.67c4.43-4.42,20.69-4.42,25.19,0v15.49h-25.19v-15.49Z"/>
      <path class="cls-17" d="M1789.39,929.23c4.43-3.71,20.7-3.71,25.19,0v39h-25.19v-39Z"/>
      <path class="cls-8" d="M1789.39,902.58c4.43-3.71,20.7-3.71,25.19,0v26.65h-25.19v-26.65Z"/>
      <path class="cls-13" d="M1789.39,867h25.19v35.58h-25.19v-35.58Z"/>
      <path class="cls-17" d="M1877.89,870.9c4.43-9.34,20.7-9.34,25.19,0v98.08h-25.19v-98.08Z"/>
      <path class="cls-8" d="M1877.89,803.86c4.43-9.34,20.7-9.34,25.19,0v67.04h-25.19v-67.04Z"/>
      <path class="cls-13" d="M1877.89,714.38h25.19v89.49h-25.19v-89.49Z"/>
      <path class="cls-4" d="M1746.36,1007.47c4.43-4.42,20.69-4.42,25.19,0v15.2h-25.19v-15.2Z"/>
      <path class="cls-10" d="M1746.36,969.58h25.19v37.96h-25.19v-37.96Z"/>
      <path class="cls-17" d="M1832.43,936.18c4.43-4.42,20.69-4.42,25.19,0v32.05h-25.19v-32.05Z"/>
      <path class="cls-8" d="M1832.43,864.33c4.43-4.43,20.69-4.43,25.19,0v71.86h-25.19v-71.86Z"/>
      <path class="cls-13" d="M1832.43,819.65h25.19v44.74h-25.19v-44.74Z"/>
    </g>
    <g class="cls-33">
      <path class="cls-15" d="M1088.4,717.02c-1.87,0-3.48-.48-4.81-1.43-1.34-.95-2.36-2.32-3.08-4.12-.72-1.8-1.07-3.97-1.07-6.51,0-2.54.37-4.7,1.08-6.48.72-1.78,1.74-3.14,3.08-4.08,1.34-.94,2.94-1.41,4.8-1.41s3.47.47,4.81,1.41c1.34.94,2.37,2.3,3.08,4.09s1.07,3.95,1.07,6.48-.36,4.72-1.07,6.52c-.72,1.8-1.74,3.17-3.08,4.12-1.34.95-2.94,1.42-4.81,1.42ZM1088.4,713.47c1.46,0,2.6-.72,3.45-2.15.85-1.44,1.27-3.55,1.27-6.35,0-1.85-.19-3.4-.58-4.66-.39-1.26-.93-2.21-1.64-2.85-.7-.64-1.54-.96-2.5-.96-1.45,0-2.59.72-3.43,2.15-.84,1.44-1.27,3.54-1.27,6.31,0,1.86.18,3.42.56,4.68.38,1.27.93,2.22,1.63,2.86.71.64,1.54.96,2.51.96Z"/>
      <path class="cls-15" d="M1111.11,693.31v23.27h-4.21v-19.17h-.14l-5.44,3.48v-3.86l5.78-3.72h4.01Z"/>
      <path class="cls-15" d="M1126.13,717.02c-1.87,0-3.48-.48-4.81-1.43-1.34-.95-2.36-2.32-3.08-4.12-.72-1.8-1.07-3.97-1.07-6.51,0-2.54.37-4.7,1.08-6.48.72-1.78,1.74-3.14,3.08-4.08,1.34-.94,2.94-1.41,4.8-1.41s3.47.47,4.81,1.41c1.34.94,2.37,2.3,3.08,4.09s1.07,3.95,1.07,6.48-.36,4.72-1.07,6.52c-.72,1.8-1.74,3.17-3.08,4.12-1.34.95-2.94,1.42-4.81,1.42ZM1126.13,713.47c1.46,0,2.6-.72,3.45-2.15.85-1.44,1.27-3.55,1.27-6.35,0-1.85-.19-3.4-.58-4.66-.39-1.26-.93-2.21-1.64-2.85-.7-.64-1.54-.96-2.5-.96-1.45,0-2.59.72-3.43,2.15-.84,1.44-1.27,3.54-1.27,6.31,0,1.86.18,3.42.56,4.68.38,1.27.93,2.22,1.63,2.86.71.64,1.54.96,2.51.96Z"/>
      <path class="cls-15" d="M1147.98,717.02c-1.87,0-3.48-.48-4.81-1.43-1.34-.95-2.36-2.32-3.08-4.12-.72-1.8-1.07-3.97-1.07-6.51,0-2.54.37-4.7,1.08-6.48.72-1.78,1.74-3.14,3.08-4.08,1.34-.94,2.94-1.41,4.8-1.41s3.47.47,4.81,1.41c1.34.94,2.37,2.3,3.08,4.09s1.07,3.95,1.07,6.48-.36,4.72-1.07,6.52c-.72,1.8-1.74,3.17-3.08,4.12-1.34.95-2.94,1.42-4.81,1.42ZM1147.98,713.47c1.46,0,2.6-.72,3.45-2.15.85-1.44,1.27-3.55,1.27-6.35,0-1.85-.19-3.4-.58-4.66-.39-1.26-.93-2.21-1.64-2.85-.7-.64-1.54-.96-2.5-.96-1.45,0-2.59.72-3.43,2.15-.84,1.44-1.27,3.54-1.27,6.31,0,1.86.18,3.42.56,4.68.38,1.27.93,2.22,1.63,2.86.71.64,1.54.96,2.51.96Z"/>
      <path class="cls-15" d="M1170.68,693.31v23.27h-4.21v-19.17h-.14l-5.44,3.48v-3.86l5.78-3.72h4.01Z"/>
      <path class="cls-15" d="M1186.57,693.31v23.27h-4.21v-19.17h-.14l-5.44,3.48v-3.86l5.78-3.72h4.01Z"/>
      <path class="cls-15" d="M1202.46,693.31v23.27h-4.21v-19.17h-.14l-5.44,3.48v-3.86l5.78-3.72h4.01Z"/>
      <path class="cls-15" d="M1217.49,717.02c-1.87,0-3.48-.48-4.81-1.43-1.34-.95-2.36-2.32-3.08-4.12-.72-1.8-1.07-3.97-1.07-6.51,0-2.54.37-4.7,1.08-6.48.72-1.78,1.74-3.14,3.08-4.08,1.34-.94,2.94-1.41,4.8-1.41s3.47.47,4.81,1.41c1.34.94,2.37,2.3,3.08,4.09.72,1.79,1.07,3.95,1.07,6.48s-.36,4.72-1.07,6.52c-.72,1.8-1.74,3.17-3.08,4.12-1.34.95-2.94,1.42-4.81,1.42ZM1217.49,713.47c1.46,0,2.6-.72,3.45-2.15.85-1.44,1.27-3.55,1.27-6.35,0-1.85-.19-3.4-.58-4.66-.39-1.26-.93-2.21-1.64-2.85-.7-.64-1.54-.96-2.5-.96-1.45,0-2.59.72-3.43,2.15-.84,1.44-1.27,3.54-1.27,6.31,0,1.86.18,3.42.56,4.68.38,1.27.93,2.22,1.63,2.86.71.64,1.54.96,2.51.96Z"/>
      <path class="cls-15" d="M1240.19,693.31v23.27h-4.21v-19.17h-.14l-5.44,3.48v-3.86l5.78-3.72h4.01Z"/>
      <path class="cls-15" d="M1255.22,717.02c-1.87,0-3.48-.48-4.81-1.43-1.34-.95-2.36-2.32-3.08-4.12-.72-1.8-1.07-3.97-1.07-6.51,0-2.54.37-4.7,1.08-6.48.72-1.78,1.74-3.14,3.08-4.08,1.34-.94,2.94-1.41,4.8-1.41s3.47.47,4.81,1.41c1.34.94,2.37,2.3,3.08,4.09.72,1.79,1.07,3.95,1.07,6.48s-.36,4.72-1.07,6.52c-.72,1.8-1.74,3.17-3.08,4.12-1.34.95-2.94,1.42-4.81,1.42ZM1255.22,713.47c1.46,0,2.6-.72,3.45-2.15.85-1.44,1.27-3.55,1.27-6.35,0-1.85-.19-3.4-.58-4.66-.39-1.26-.93-2.21-1.64-2.85-.7-.64-1.54-.96-2.5-.96-1.45,0-2.59.72-3.43,2.15-.84,1.44-1.27,3.54-1.27,6.31,0,1.86.18,3.42.56,4.68.38,1.27.93,2.22,1.63,2.86.71.64,1.54.96,2.51.96Z"/>
      <path class="cls-15" d="M1277.93,693.31v23.27h-4.21v-19.17h-.14l-5.44,3.48v-3.86l5.78-3.72h4.01Z"/>
      <path class="cls-15" d="M1088.4,755.42c-1.87,0-3.48-.48-4.81-1.43-1.34-.95-2.36-2.32-3.08-4.12-.72-1.8-1.07-3.97-1.07-6.51,0-2.54.37-4.7,1.08-6.48.72-1.78,1.74-3.14,3.08-4.08,1.34-.94,2.94-1.41,4.8-1.41s3.47.47,4.81,1.41c1.34.94,2.37,2.3,3.08,4.09s1.07,3.95,1.07,6.48-.36,4.72-1.07,6.52c-.72,1.8-1.74,3.17-3.08,4.12-1.34.95-2.94,1.42-4.81,1.42ZM1088.4,751.86c1.46,0,2.6-.72,3.45-2.15.85-1.44,1.27-3.55,1.27-6.35,0-1.85-.19-3.4-.58-4.66-.39-1.26-.93-2.21-1.64-2.85-.7-.64-1.54-.96-2.5-.96-1.45,0-2.59.72-3.43,2.15-.84,1.44-1.27,3.54-1.27,6.31,0,1.86.18,3.42.56,4.68.38,1.27.93,2.22,1.63,2.86.71.64,1.54.96,2.51.96Z"/>
      <path class="cls-15" d="M1110.95,731.71v23.27h-4.21v-19.17h-.14l-5.44,3.48v-3.86l5.78-3.72h4.01Z"/>
      <path class="cls-15" d="M1126.69,731.71v23.27h-4.21v-19.17h-.14l-5.44,3.48v-3.86l5.78-3.72h4.01Z"/>
      <path class="cls-15" d="M1142.42,731.71v23.27h-4.21v-19.17h-.14l-5.44,3.48v-3.86l5.78-3.72h4.01Z"/>
      <path class="cls-15" d="M1158.16,731.71v23.27h-4.21v-19.17h-.14l-5.44,3.48v-3.86l5.78-3.72h4.01Z"/>
      <path class="cls-15" d="M1173.9,731.71v23.27h-4.21v-19.17h-.14l-5.44,3.48v-3.86l5.78-3.72h4.01Z"/>
      <path class="cls-15" d="M1188.77,755.42c-1.87,0-3.48-.48-4.81-1.43-1.34-.95-2.36-2.32-3.08-4.12-.72-1.8-1.07-3.97-1.07-6.51,0-2.54.37-4.7,1.08-6.48.72-1.78,1.74-3.14,3.08-4.08,1.34-.94,2.94-1.41,4.8-1.41s3.47.47,4.81,1.41c1.34.94,2.37,2.3,3.08,4.09s1.07,3.95,1.07,6.48-.36,4.72-1.07,6.52c-.72,1.8-1.74,3.17-3.08,4.12-1.34.95-2.94,1.42-4.81,1.42ZM1188.77,751.86c1.46,0,2.6-.72,3.45-2.15.85-1.44,1.27-3.55,1.27-6.35,0-1.85-.19-3.4-.58-4.66-.39-1.26-.93-2.21-1.64-2.85-.7-.64-1.54-.96-2.5-.96-1.45,0-2.59.72-3.43,2.15-.84,1.44-1.27,3.54-1.27,6.31,0,1.86.18,3.42.56,4.68.38,1.27.93,2.22,1.63,2.86.71.64,1.54.96,2.51.96Z"/>
      <path class="cls-15" d="M1210.46,755.42c-1.87,0-3.48-.48-4.81-1.43-1.34-.95-2.36-2.32-3.08-4.12-.72-1.8-1.07-3.97-1.07-6.51,0-2.54.37-4.7,1.08-6.48.72-1.78,1.74-3.14,3.08-4.08,1.34-.94,2.94-1.41,4.8-1.41s3.47.47,4.81,1.41c1.34.94,2.37,2.3,3.08,4.09s1.07,3.95,1.07,6.48-.36,4.72-1.07,6.52c-.72,1.8-1.74,3.17-3.08,4.12-1.34.95-2.94,1.42-4.81,1.42ZM1210.46,751.86c1.46,0,2.6-.72,3.45-2.15.85-1.44,1.27-3.55,1.27-6.35,0-1.85-.19-3.4-.58-4.66-.39-1.26-.93-2.21-1.64-2.85-.7-.64-1.54-.96-2.5-.96-1.45,0-2.59.72-3.43,2.15-.84,1.44-1.27,3.54-1.27,6.31,0,1.86.18,3.42.56,4.68.38,1.27.93,2.22,1.63,2.86.71.64,1.54.96,2.51.96Z"/>
      <path class="cls-15" d="M1232.15,755.42c-1.87,0-3.48-.48-4.81-1.43-1.34-.95-2.36-2.32-3.08-4.12-.72-1.8-1.07-3.97-1.07-6.51,0-2.54.37-4.7,1.08-6.48.72-1.78,1.74-3.14,3.08-4.08,1.34-.94,2.94-1.41,4.8-1.41s3.47.47,4.81,1.41c1.34.94,2.37,2.3,3.08,4.09s1.07,3.95,1.07,6.48-.36,4.72-1.07,6.52c-.72,1.8-1.74,3.17-3.08,4.12-1.34.95-2.94,1.42-4.81,1.42ZM1232.15,751.86c1.46,0,2.6-.72,3.45-2.15.85-1.44,1.27-3.55,1.27-6.35,0-1.85-.19-3.4-.58-4.66-.39-1.26-.93-2.21-1.64-2.85-.7-.64-1.54-.96-2.5-.96-1.45,0-2.59.72-3.43,2.15-.84,1.44-1.27,3.54-1.27,6.31,0,1.86.18,3.42.56,4.68.38,1.27.93,2.22,1.63,2.86.71.64,1.54.96,2.51.96Z"/>
      <path class="cls-15" d="M1253.84,755.42c-1.87,0-3.48-.48-4.81-1.43-1.34-.95-2.36-2.32-3.08-4.12-.72-1.8-1.07-3.97-1.07-6.51,0-2.54.37-4.7,1.08-6.48.72-1.78,1.74-3.14,3.08-4.08,1.34-.94,2.94-1.41,4.8-1.41s3.47.47,4.81,1.41c1.34.94,2.37,2.3,3.08,4.09.72,1.79,1.07,3.95,1.07,6.48s-.36,4.72-1.07,6.52c-.72,1.8-1.74,3.17-3.08,4.12-1.34.95-2.94,1.42-4.81,1.42ZM1253.84,751.86c1.46,0,2.6-.72,3.45-2.15.85-1.44,1.27-3.55,1.27-6.35,0-1.85-.19-3.4-.58-4.66-.39-1.26-.93-2.21-1.64-2.85-.7-.64-1.54-.96-2.5-.96-1.45,0-2.59.72-3.43,2.15-.84,1.44-1.27,3.54-1.27,6.31,0,1.86.18,3.42.56,4.68.38,1.27.93,2.22,1.63,2.86.71.64,1.54.96,2.51.96Z"/>
      <path class="cls-15" d="M1276.39,731.71v23.27h-4.21v-19.17h-.14l-5.44,3.48v-3.86l5.78-3.72h4.01Z"/>
      <path class="cls-15" d="M1088.4,793.82c-1.87,0-3.48-.48-4.81-1.43-1.34-.95-2.36-2.32-3.08-4.12-.72-1.8-1.07-3.97-1.07-6.51,0-2.54.37-4.7,1.08-6.48.72-1.78,1.74-3.14,3.08-4.08,1.34-.94,2.94-1.41,4.8-1.41s3.47.47,4.81,1.41c1.34.94,2.37,2.3,3.08,4.09s1.07,3.95,1.07,6.48-.36,4.72-1.07,6.52c-.72,1.8-1.74,3.17-3.08,4.12-1.34.95-2.94,1.42-4.81,1.42ZM1088.4,790.26c1.46,0,2.6-.72,3.45-2.15.85-1.44,1.27-3.55,1.27-6.35,0-1.85-.19-3.4-.58-4.66-.39-1.26-.93-2.21-1.64-2.85-.7-.64-1.54-.96-2.5-.96-1.45,0-2.59.72-3.43,2.15-.84,1.44-1.27,3.54-1.27,6.31,0,1.86.18,3.42.56,4.68.38,1.27.93,2.22,1.63,2.86.71.64,1.54.96,2.51.96Z"/>
      <path class="cls-15" d="M1111.35,770.1v23.27h-4.21v-19.17h-.14l-5.44,3.48v-3.86l5.78-3.72h4.01Z"/>
      <path class="cls-15" d="M1126.61,793.82c-1.87,0-3.48-.48-4.81-1.43-1.34-.95-2.36-2.32-3.08-4.12-.72-1.8-1.07-3.97-1.07-6.51,0-2.54.37-4.7,1.08-6.48.72-1.78,1.74-3.14,3.08-4.08,1.34-.94,2.94-1.41,4.8-1.41s3.47.47,4.81,1.41c1.34.94,2.37,2.3,3.08,4.09s1.07,3.95,1.07,6.48-.36,4.72-1.07,6.52c-.72,1.8-1.74,3.17-3.08,4.12-1.34.95-2.94,1.42-4.81,1.42ZM1126.61,790.26c1.46,0,2.6-.72,3.45-2.15.85-1.44,1.27-3.55,1.27-6.35,0-1.85-.19-3.4-.58-4.66-.39-1.26-.93-2.21-1.64-2.85-.7-.64-1.54-.96-2.5-.96-1.45,0-2.59.72-3.43,2.15-.84,1.44-1.27,3.54-1.27,6.31,0,1.86.18,3.42.56,4.68.38,1.27.93,2.22,1.63,2.86.71.64,1.54.96,2.51.96Z"/>
      <path class="cls-15" d="M1149.55,770.1v23.27h-4.21v-19.17h-.14l-5.44,3.48v-3.86l5.78-3.72h4.01Z"/>
      <path class="cls-15" d="M1164.82,793.82c-1.87,0-3.48-.48-4.81-1.43-1.34-.95-2.36-2.32-3.08-4.12-.72-1.8-1.07-3.97-1.07-6.51,0-2.54.37-4.7,1.08-6.48.72-1.78,1.74-3.14,3.08-4.08,1.34-.94,2.94-1.41,4.8-1.41s3.47.47,4.81,1.41c1.34.94,2.37,2.3,3.08,4.09s1.07,3.95,1.07,6.48-.36,4.72-1.07,6.52c-.72,1.8-1.74,3.17-3.08,4.12-1.34.95-2.94,1.42-4.81,1.42ZM1164.82,790.26c1.46,0,2.6-.72,3.45-2.15.85-1.44,1.27-3.55,1.27-6.35,0-1.85-.19-3.4-.58-4.66-.39-1.26-.93-2.21-1.64-2.85-.7-.64-1.54-.96-2.5-.96-1.45,0-2.59.72-3.43,2.15-.84,1.44-1.27,3.54-1.27,6.31,0,1.86.18,3.42.56,4.68.38,1.27.93,2.22,1.63,2.86.71.64,1.54.96,2.51.96Z"/>
      <path class="cls-15" d="M1187.76,770.1v23.27h-4.21v-19.17h-.14l-5.44,3.48v-3.86l5.78-3.72h4.01Z"/>
      <path class="cls-15" d="M1203.03,793.82c-1.87,0-3.48-.48-4.81-1.43-1.34-.95-2.36-2.32-3.08-4.12-.72-1.8-1.07-3.97-1.07-6.51,0-2.54.37-4.7,1.08-6.48.72-1.78,1.74-3.14,3.08-4.08,1.34-.94,2.94-1.41,4.8-1.41s3.47.47,4.81,1.41c1.34.94,2.37,2.3,3.08,4.09s1.07,3.95,1.07,6.48-.36,4.72-1.07,6.52c-.72,1.8-1.74,3.17-3.08,4.12-1.34.95-2.94,1.42-4.81,1.42ZM1203.03,790.26c1.46,0,2.6-.72,3.45-2.15.85-1.44,1.27-3.55,1.27-6.35,0-1.85-.19-3.4-.58-4.66-.39-1.26-.93-2.21-1.64-2.85-.7-.64-1.54-.96-2.5-.96-1.45,0-2.59.72-3.43,2.15-.84,1.44-1.27,3.54-1.27,6.31,0,1.86.18,3.42.56,4.68.38,1.27.93,2.22,1.63,2.86.71.64,1.54.96,2.51.96Z"/>
      <path class="cls-15" d="M1225.97,770.1v23.27h-4.21v-19.17h-.14l-5.44,3.48v-3.86l5.78-3.72h4.01Z"/>
      <path class="cls-15" d="M1241.24,793.82c-1.87,0-3.48-.48-4.81-1.43-1.34-.95-2.36-2.32-3.08-4.12-.72-1.8-1.07-3.97-1.07-6.51,0-2.54.37-4.7,1.08-6.48.72-1.78,1.74-3.14,3.08-4.08,1.34-.94,2.94-1.41,4.8-1.41s3.47.47,4.81,1.41c1.34.94,2.37,2.3,3.08,4.09s1.07,3.95,1.07,6.48-.36,4.72-1.07,6.52c-.72,1.8-1.74,3.17-3.08,4.12-1.34.95-2.94,1.42-4.81,1.42ZM1241.24,790.26c1.46,0,2.6-.72,3.45-2.15.85-1.44,1.27-3.55,1.27-6.35,0-1.85-.19-3.4-.58-4.66-.39-1.26-.93-2.21-1.64-2.85-.7-.64-1.54-.96-2.5-.96-1.45,0-2.59.72-3.43,2.15-.84,1.44-1.27,3.54-1.27,6.31,0,1.86.18,3.42.56,4.68.38,1.27.93,2.22,1.63,2.86.71.64,1.54.96,2.51.96Z"/>
      <path class="cls-15" d="M1264.18,770.1v23.27h-4.21v-19.17h-.14l-5.44,3.48v-3.86l5.78-3.72h4.01Z"/>
      <path class="cls-15" d="M1280.31,770.1v23.27h-4.21v-19.17h-.14l-5.44,3.48v-3.86l5.78-3.72h4.01Z"/>
      <path class="cls-15" d="M1088.4,832.22c-1.87,0-3.48-.48-4.81-1.43-1.34-.95-2.36-2.32-3.08-4.12-.72-1.8-1.07-3.97-1.07-6.51,0-2.54.37-4.7,1.08-6.48.72-1.78,1.74-3.14,3.08-4.08,1.34-.94,2.94-1.41,4.8-1.41s3.47.47,4.81,1.41c1.34.94,2.37,2.3,3.08,4.09s1.07,3.95,1.07,6.48-.36,4.72-1.07,6.52c-.72,1.8-1.74,3.17-3.08,4.12-1.34.95-2.94,1.42-4.81,1.42ZM1088.4,828.66c1.46,0,2.6-.72,3.45-2.15.85-1.44,1.27-3.55,1.27-6.35,0-1.85-.19-3.4-.58-4.66-.39-1.26-.93-2.21-1.64-2.85-.7-.64-1.54-.96-2.5-.96-1.45,0-2.59.72-3.43,2.15-.84,1.44-1.27,3.54-1.27,6.31,0,1.86.18,3.42.56,4.68.38,1.27.93,2.22,1.63,2.86.71.64,1.54.96,2.51.96Z"/>
      <path class="cls-15" d="M1110.72,808.5v23.27h-4.21v-19.17h-.14l-5.44,3.48v-3.86l5.78-3.72h4.01Z"/>
      <path class="cls-15" d="M1126.23,808.5v23.27h-4.21v-19.17h-.14l-5.44,3.48v-3.86l5.78-3.72h4.01Z"/>
      <path class="cls-15" d="M1140.88,832.22c-1.87,0-3.48-.48-4.81-1.43-1.34-.95-2.36-2.32-3.08-4.12-.72-1.8-1.07-3.97-1.07-6.51,0-2.54.37-4.7,1.08-6.48.72-1.78,1.74-3.14,3.08-4.08,1.34-.94,2.94-1.41,4.8-1.41s3.47.47,4.81,1.41c1.34.94,2.37,2.3,3.08,4.09s1.07,3.95,1.07,6.48-.36,4.72-1.07,6.52c-.72,1.8-1.74,3.17-3.08,4.12-1.34.95-2.94,1.42-4.81,1.42ZM1140.88,828.66c1.46,0,2.6-.72,3.45-2.15.85-1.44,1.27-3.55,1.27-6.35,0-1.85-.19-3.4-.58-4.66-.39-1.26-.93-2.21-1.64-2.85-.7-.64-1.54-.96-2.5-.96-1.45,0-2.59.72-3.43,2.15-.84,1.44-1.27,3.54-1.27,6.31,0,1.86.18,3.42.56,4.68.38,1.27.93,2.22,1.63,2.86.71.64,1.54.96,2.51.96Z"/>
      <path class="cls-15" d="M1163.2,808.5v23.27h-4.21v-19.17h-.14l-5.44,3.48v-3.86l5.78-3.72h4.01Z"/>
      <path class="cls-15" d="M1177.84,832.22c-1.87,0-3.48-.48-4.81-1.43-1.34-.95-2.36-2.32-3.08-4.12-.72-1.8-1.07-3.97-1.07-6.51,0-2.54.37-4.7,1.08-6.48.72-1.78,1.74-3.14,3.08-4.08,1.34-.94,2.94-1.41,4.8-1.41s3.47.47,4.81,1.41c1.34.94,2.37,2.3,3.08,4.09s1.07,3.95,1.07,6.48-.36,4.72-1.07,6.52c-.72,1.8-1.74,3.17-3.08,4.12-1.34.95-2.94,1.42-4.81,1.42ZM1177.84,828.66c1.46,0,2.6-.72,3.45-2.15.85-1.44,1.27-3.55,1.27-6.35,0-1.85-.19-3.4-.58-4.66-.39-1.26-.93-2.21-1.64-2.85-.7-.64-1.54-.96-2.5-.96-1.45,0-2.59.72-3.43,2.15-.84,1.44-1.27,3.54-1.27,6.31,0,1.86.18,3.42.56,4.68.38,1.27.93,2.22,1.63,2.86.71.64,1.54.96,2.51.96Z"/>
      <path class="cls-15" d="M1200.17,808.5v23.27h-4.21v-19.17h-.14l-5.44,3.48v-3.86l5.78-3.72h4.01Z"/>
      <path class="cls-15" d="M1214.81,832.22c-1.87,0-3.48-.48-4.81-1.43-1.34-.95-2.36-2.32-3.08-4.12-.72-1.8-1.07-3.97-1.07-6.51,0-2.54.37-4.7,1.08-6.48.72-1.78,1.74-3.14,3.08-4.08,1.34-.94,2.94-1.41,4.8-1.41s3.47.47,4.81,1.41c1.34.94,2.37,2.3,3.08,4.09s1.07,3.95,1.07,6.48-.36,4.72-1.07,6.52c-.72,1.8-1.74,3.17-3.08,4.12-1.34.95-2.94,1.42-4.81,1.42ZM1214.81,828.66c1.46,0,2.6-.72,3.45-2.15.85-1.44,1.27-3.55,1.27-6.35,0-1.85-.19-3.4-.58-4.66-.39-1.26-.93-2.21-1.64-2.85-.7-.64-1.54-.96-2.5-.96-1.45,0-2.59.72-3.43,2.15-.84,1.44-1.27,3.54-1.27,6.31,0,1.86.18,3.42.56,4.68.38,1.27.93,2.22,1.63,2.86.71.64,1.54.96,2.51.96Z"/>
      <path class="cls-15" d="M1237.14,808.5v23.27h-4.21v-19.17h-.14l-5.44,3.48v-3.86l5.78-3.72h4.01Z"/>
      <path class="cls-15" d="M1251.78,832.22c-1.87,0-3.48-.48-4.81-1.43-1.34-.95-2.36-2.32-3.08-4.12-.72-1.8-1.07-3.97-1.07-6.51,0-2.54.37-4.7,1.08-6.48.72-1.78,1.74-3.14,3.08-4.08,1.34-.94,2.94-1.41,4.8-1.41s3.47.47,4.81,1.41c1.34.94,2.37,2.3,3.08,4.09s1.07,3.95,1.07,6.48-.36,4.72-1.07,6.52c-.72,1.8-1.74,3.17-3.08,4.12-1.34.95-2.94,1.42-4.81,1.42ZM1251.78,828.66c1.46,0,2.6-.72,3.45-2.15.85-1.44,1.27-3.55,1.27-6.35,0-1.85-.19-3.4-.58-4.66-.39-1.26-.93-2.21-1.64-2.85-.7-.64-1.54-.96-2.5-.96-1.45,0-2.59.72-3.43,2.15-.84,1.44-1.27,3.54-1.27,6.31,0,1.86.18,3.42.56,4.68.38,1.27.93,2.22,1.63,2.86.71.64,1.54.96,2.51.96Z"/>
      <path class="cls-15" d="M1274.1,808.5v23.27h-4.21v-19.17h-.14l-5.44,3.48v-3.86l5.78-3.72h4.01Z"/>
      <path class="cls-15" d="M1089.26,846.9v23.27h-4.21v-19.17h-.14l-5.44,3.48v-3.86l5.78-3.72h4.01Z"/>
      <path class="cls-15" d="M1104.14,870.62c-1.87,0-3.48-.48-4.81-1.43-1.34-.95-2.36-2.32-3.08-4.12-.72-1.8-1.07-3.97-1.07-6.51,0-2.54.37-4.7,1.08-6.48.72-1.78,1.74-3.14,3.08-4.08,1.34-.94,2.94-1.41,4.8-1.41s3.47.47,4.81,1.41c1.34.94,2.37,2.3,3.08,4.09.72,1.79,1.07,3.95,1.07,6.48s-.36,4.72-1.07,6.52c-.72,1.8-1.74,3.17-3.08,4.12-1.34.95-2.94,1.42-4.81,1.42ZM1104.14,867.06c1.46,0,2.6-.72,3.45-2.15.85-1.44,1.27-3.55,1.27-6.35,0-1.85-.19-3.4-.58-4.66-.39-1.26-.93-2.21-1.64-2.85-.7-.64-1.54-.96-2.5-.96-1.45,0-2.59.72-3.43,2.15-.84,1.44-1.27,3.54-1.27,6.31,0,1.86.18,3.42.56,4.68.38,1.27.93,2.22,1.63,2.86.71.64,1.54.96,2.51.96Z"/>
      <path class="cls-15" d="M1126.69,846.9v23.27h-4.21v-19.17h-.14l-5.44,3.48v-3.86l5.78-3.72h4.01Z"/>
      <path class="cls-15" d="M1141.56,870.62c-1.87,0-3.48-.48-4.81-1.43-1.34-.95-2.36-2.32-3.08-4.12-.72-1.8-1.07-3.97-1.07-6.51,0-2.54.37-4.7,1.08-6.48.72-1.78,1.74-3.14,3.08-4.08,1.34-.94,2.94-1.41,4.8-1.41s3.47.47,4.81,1.41c1.34.94,2.37,2.3,3.08,4.09s1.07,3.95,1.07,6.48-.36,4.72-1.07,6.52c-.72,1.8-1.74,3.17-3.08,4.12-1.34.95-2.94,1.42-4.81,1.42ZM1141.56,867.06c1.46,0,2.6-.72,3.45-2.15.85-1.44,1.27-3.55,1.27-6.35,0-1.85-.19-3.4-.58-4.66-.39-1.26-.93-2.21-1.64-2.85-.7-.64-1.54-.96-2.5-.96-1.45,0-2.59.72-3.43,2.15-.84,1.44-1.27,3.54-1.27,6.31,0,1.86.18,3.42.56,4.68.38,1.27.93,2.22,1.63,2.86.71.64,1.54.96,2.51.96Z"/>
      <path class="cls-15" d="M1164.12,846.9v23.27h-4.21v-19.17h-.14l-5.44,3.48v-3.86l5.78-3.72h4.01Z"/>
      <path class="cls-15" d="M1178.99,870.62c-1.87,0-3.48-.48-4.81-1.43-1.34-.95-2.36-2.32-3.08-4.12-.72-1.8-1.07-3.97-1.07-6.51,0-2.54.37-4.7,1.08-6.48.72-1.78,1.74-3.14,3.08-4.08,1.34-.94,2.94-1.41,4.8-1.41s3.47.47,4.81,1.41c1.34.94,2.37,2.3,3.08,4.09s1.07,3.95,1.07,6.48-.36,4.72-1.07,6.52c-.72,1.8-1.74,3.17-3.08,4.12-1.34.95-2.94,1.42-4.81,1.42ZM1178.99,867.06c1.46,0,2.6-.72,3.45-2.15.85-1.44,1.27-3.55,1.27-6.35,0-1.85-.19-3.4-.58-4.66-.39-1.26-.93-2.21-1.64-2.85-.7-.64-1.54-.96-2.5-.96-1.45,0-2.59.72-3.43,2.15-.84,1.44-1.27,3.54-1.27,6.31,0,1.86.18,3.42.56,4.68.38,1.27.93,2.22,1.63,2.86.71.64,1.54.96,2.51.96Z"/>
      <path class="cls-15" d="M1201.54,846.9v23.27h-4.21v-19.17h-.14l-5.44,3.48v-3.86l5.78-3.72h4.01Z"/>
      <path class="cls-15" d="M1216.41,870.62c-1.87,0-3.48-.48-4.81-1.43-1.34-.95-2.36-2.32-3.08-4.12-.72-1.8-1.07-3.97-1.07-6.51,0-2.54.37-4.7,1.08-6.48.72-1.78,1.74-3.14,3.08-4.08,1.34-.94,2.94-1.41,4.8-1.41s3.47.47,4.81,1.41c1.34.94,2.37,2.3,3.08,4.09s1.07,3.95,1.07,6.48-.36,4.72-1.07,6.52c-.72,1.8-1.74,3.17-3.08,4.12-1.34.95-2.94,1.42-4.81,1.42ZM1216.41,867.06c1.46,0,2.6-.72,3.45-2.15.85-1.44,1.27-3.55,1.27-6.35,0-1.85-.19-3.4-.58-4.66-.39-1.26-.93-2.21-1.64-2.85-.7-.64-1.54-.96-2.5-.96-1.45,0-2.59.72-3.43,2.15-.84,1.44-1.27,3.54-1.27,6.31,0,1.86.18,3.42.56,4.68.38,1.27.93,2.22,1.63,2.86.71.64,1.54.96,2.51.96Z"/>
      <path class="cls-15" d="M1238.97,846.9v23.27h-4.21v-19.17h-.14l-5.44,3.48v-3.86l5.78-3.72h4.01Z"/>
      <path class="cls-15" d="M1254.7,846.9v23.27h-4.21v-19.17h-.14l-5.44,3.48v-3.86l5.78-3.72h4.01Z"/>
      <path class="cls-15" d="M1270.44,846.9v23.27h-4.21v-19.17h-.14l-5.44,3.48v-3.86l5.78-3.72h4.01Z"/>
      <path class="cls-15" d="M1286.18,846.9v23.27h-4.21v-19.17h-.14l-5.44,3.48v-3.86l5.78-3.72h4.01Z"/>
      <path class="cls-15" d="M1089.26,885.3v23.27h-4.21v-19.17h-.14l-5.44,3.48v-3.86l5.78-3.72h4.01Z"/>
      <path class="cls-15" d="M1104.53,909.01c-1.87,0-3.48-.48-4.81-1.43-1.34-.95-2.36-2.32-3.08-4.12-.72-1.8-1.07-3.97-1.07-6.51,0-2.54.37-4.7,1.08-6.48.72-1.78,1.74-3.14,3.08-4.08,1.34-.94,2.94-1.41,4.8-1.41s3.47.47,4.81,1.41c1.34.94,2.37,2.3,3.08,4.09s1.07,3.95,1.07,6.48-.36,4.72-1.07,6.52c-.72,1.8-1.74,3.17-3.08,4.12-1.34.95-2.94,1.42-4.81,1.42ZM1104.53,905.46c1.46,0,2.6-.72,3.45-2.15.85-1.44,1.27-3.55,1.27-6.35,0-1.85-.19-3.4-.58-4.66-.39-1.26-.93-2.21-1.64-2.85-.7-.64-1.54-.96-2.5-.96-1.45,0-2.59.72-3.43,2.15-.84,1.44-1.27,3.54-1.27,6.31,0,1.86.18,3.42.56,4.68.38,1.27.93,2.22,1.63,2.86.71.64,1.54.96,2.51.96Z"/>
      <path class="cls-15" d="M1127.47,885.3v23.27h-4.21v-19.17h-.14l-5.44,3.48v-3.86l5.78-3.72h4.01Z"/>
      <path class="cls-15" d="M1143.6,885.3v23.27h-4.21v-19.17h-.14l-5.44,3.48v-3.86l5.78-3.72h4.01Z"/>
      <path class="cls-15" d="M1159.73,885.3v23.27h-4.21v-19.17h-.14l-5.44,3.48v-3.86l5.78-3.72h4.01Z"/>
      <path class="cls-15" d="M1174.99,909.01c-1.87,0-3.48-.48-4.81-1.43-1.34-.95-2.36-2.32-3.08-4.12-.72-1.8-1.07-3.97-1.07-6.51,0-2.54.37-4.7,1.08-6.48.72-1.78,1.74-3.14,3.08-4.08,1.34-.94,2.94-1.41,4.8-1.41s3.47.47,4.81,1.41c1.34.94,2.37,2.3,3.08,4.09s1.07,3.95,1.07,6.48-.36,4.72-1.07,6.52c-.72,1.8-1.74,3.17-3.08,4.12-1.34.95-2.94,1.42-4.81,1.42ZM1174.99,905.46c1.46,0,2.6-.72,3.45-2.15.85-1.44,1.27-3.55,1.27-6.35,0-1.85-.19-3.4-.58-4.66-.39-1.26-.93-2.21-1.64-2.85-.7-.64-1.54-.96-2.5-.96-1.45,0-2.59.72-3.43,2.15-.84,1.44-1.27,3.54-1.27,6.31,0,1.86.18,3.42.56,4.68.38,1.27.93,2.22,1.63,2.86.71.64,1.54.96,2.51.96Z"/>
      <path class="cls-15" d="M1197.07,909.01c-1.87,0-3.48-.48-4.81-1.43-1.34-.95-2.36-2.32-3.08-4.12-.72-1.8-1.07-3.97-1.07-6.51,0-2.54.37-4.7,1.08-6.48.72-1.78,1.74-3.14,3.08-4.08,1.34-.94,2.94-1.41,4.8-1.41s3.47.47,4.81,1.41c1.34.94,2.37,2.3,3.08,4.09s1.07,3.95,1.07,6.48-.36,4.72-1.07,6.52c-.72,1.8-1.74,3.17-3.08,4.12-1.34.95-2.94,1.42-4.81,1.42ZM1197.07,905.46c1.46,0,2.6-.72,3.45-2.15.85-1.44,1.27-3.55,1.27-6.35,0-1.85-.19-3.4-.58-4.66-.39-1.26-.93-2.21-1.64-2.85-.7-.64-1.54-.96-2.5-.96-1.45,0-2.59.72-3.43,2.15-.84,1.44-1.27,3.54-1.27,6.31,0,1.86.18,3.42.56,4.68.38,1.27.93,2.22,1.63,2.86.71.64,1.54.96,2.51.96Z"/>
      <path class="cls-15" d="M1219.15,909.01c-1.87,0-3.48-.48-4.81-1.43-1.34-.95-2.36-2.32-3.08-4.12-.72-1.8-1.07-3.97-1.07-6.51,0-2.54.37-4.7,1.08-6.48.72-1.78,1.74-3.14,3.08-4.08,1.34-.94,2.94-1.41,4.8-1.41s3.47.47,4.81,1.41c1.34.94,2.37,2.3,3.08,4.09.72,1.79,1.07,3.95,1.07,6.48s-.36,4.72-1.07,6.52c-.72,1.8-1.74,3.17-3.08,4.12-1.34.95-2.94,1.42-4.81,1.42ZM1219.15,905.46c1.46,0,2.6-.72,3.45-2.15.85-1.44,1.27-3.55,1.27-6.35,0-1.85-.19-3.4-.58-4.66-.39-1.26-.93-2.21-1.64-2.85-.7-.64-1.54-.96-2.5-.96-1.45,0-2.59.72-3.43,2.15-.84,1.44-1.27,3.54-1.27,6.31,0,1.86.18,3.42.56,4.68.38,1.27.93,2.22,1.63,2.86.71.64,1.54.96,2.51.96Z"/>
      <path class="cls-15" d="M1241.24,909.01c-1.87,0-3.48-.48-4.81-1.43-1.34-.95-2.36-2.32-3.08-4.12-.72-1.8-1.07-3.97-1.07-6.51,0-2.54.37-4.7,1.08-6.48.72-1.78,1.74-3.14,3.08-4.08,1.34-.94,2.94-1.41,4.8-1.41s3.47.47,4.81,1.41c1.34.94,2.37,2.3,3.08,4.09s1.07,3.95,1.07,6.48-.36,4.72-1.07,6.52c-.72,1.8-1.74,3.17-3.08,4.12-1.34.95-2.94,1.42-4.81,1.42ZM1241.24,905.46c1.46,0,2.6-.72,3.45-2.15.85-1.44,1.27-3.55,1.27-6.35,0-1.85-.19-3.4-.58-4.66-.39-1.26-.93-2.21-1.64-2.85-.7-.64-1.54-.96-2.5-.96-1.45,0-2.59.72-3.43,2.15-.84,1.44-1.27,3.54-1.27,6.31,0,1.86.18,3.42.56,4.68.38,1.27.93,2.22,1.63,2.86.71.64,1.54.96,2.51.96Z"/>
      <path class="cls-15" d="M1264.18,885.3v23.27h-4.21v-19.17h-.14l-5.44,3.48v-3.86l5.78-3.72h4.01Z"/>
      <path class="cls-15" d="M1279.44,909.01c-1.87,0-3.48-.48-4.81-1.43-1.34-.95-2.36-2.32-3.08-4.12-.72-1.8-1.07-3.97-1.07-6.51,0-2.54.37-4.7,1.08-6.48.72-1.78,1.74-3.14,3.08-4.08,1.34-.94,2.94-1.41,4.8-1.41s3.47.47,4.81,1.41c1.34.94,2.37,2.3,3.08,4.09s1.07,3.95,1.07,6.48-.36,4.72-1.07,6.52c-.72,1.8-1.74,3.17-3.08,4.12-1.34.95-2.94,1.42-4.81,1.42ZM1279.44,905.46c1.46,0,2.6-.72,3.45-2.15.85-1.44,1.27-3.55,1.27-6.35,0-1.85-.19-3.4-.58-4.66-.39-1.26-.93-2.21-1.64-2.85-.7-.64-1.54-.96-2.5-.96-1.45,0-2.59.72-3.43,2.15-.84,1.44-1.27,3.54-1.27,6.31,0,1.86.18,3.42.56,4.68.38,1.27.93,2.22,1.63,2.86.71.64,1.54.96,2.51.96Z"/>
    </g>
  </g>
</svg>